# xmcd CD database file
#
# Track frame offsets:
#	150
#	12112
#	30572
#	43127
#	60752
#	78465
#	90572
#	106845
#	126380
#	139182
#	155300
#	177847
#	192450
#
# Disc length: 2745 seconds
#
# Revision: 0
# Processed by: cddbd v1.4PL0 Copyright (c) Steve Scherf et al.
# Submitted via: CDex 1.40Release
#
DISCID=9f0ab70d
DTITLE=Adie Grey - Grandpa's Advice
DYEAR=1997
DGENRE=Country
TTITLE0=Ain't No Doubt About It
TTITLE1=It Ain't The Money
TTITLE2=Daddy Put Your Beer Down
TTITLE3=Now That He's Not In Love
TTITLE4=Far Away Beyond These Mountains
TTITLE5=I'm With You In My Dreams
TTITLE6=Grandpa's Advice
TTITLE7=Tell All The People You Love
TTITLE8=Christmas Everyday
TTITLE9=The Easiest Thing
TTITLE10=The Grape And The Grain
TTITLE11=My Old Man
TTITLE12=If I Lose My Way
EXTD=YEAR: 1997 ID3G: 2
EXTT0=
EXTT1=
EXTT2=
EXTT3=
EXTT4=
EXTT5=
EXTT6=
EXTT7=
EXTT8=
EXTT9=
EXTT10=
EXTT11=
EXTT12=
PLAYORDER=
